<svg width="344" height="303" viewBox="0 0 344 303" fill="none" xmlns="http://www.w3.org/2000/svg">
<path d="M338.531 93.5001C338.531 113.3 322.531 129.3 302.731 129.3C292.231 129.3 282.731 124.7 276.131 117.5L179.231 173.5L189.031 142.9L159.331 140.6L167.631 107.9L245.431 63.0001C244.231 59.4001 243.531 55.6 243.531 51.6C243.531 31.8 259.531 15.8 279.331 15.8C299.131 15.8 315.131 31.8 315.131 51.6C315.131 54.4 314.831 57.2 314.131 59.8C328.431 64.4 338.531 77.8001 338.531 93.5001Z" stroke="white" stroke-width="10" stroke-miterlimit="10" stroke-linecap="round" stroke-linejoin="round"/>
<path d="M118.431 144.2L60.1314 196.7C51.9314 191.4 41.6312 189.5 31.4312 192.2C12.3312 197.4 1.13104 217 6.23104 236.1C10.331 251.3 23.6313 261.6 38.5313 262.5C38.6313 265.2 39.031 268 39.731 270.7C44.931 289.8 64.5314 301.1 83.6314 295.9C102.731 290.7 114.031 271.1 108.831 252C107.831 248.1 106.131 244.6 104.031 241.4L129.231 216.1" stroke="white" stroke-width="10" stroke-miterlimit="10" stroke-linecap="round" stroke-linejoin="round"/>
<path d="M150.331 81.4L172.931 48.3H150.331L160.631 5" stroke="white" stroke-width="10" stroke-miterlimit="10" stroke-linecap="round" stroke-linejoin="round"/>
<path d="M92.731 127.3H54.0312" stroke="white" stroke-width="10" stroke-miterlimit="10" stroke-linecap="round" stroke-linejoin="round"/>
<path d="M57.1313 39.8999L90.4312 79.8999L105.431 56.1999L117.831 89.8999" stroke="white" stroke-width="10" stroke-miterlimit="10" stroke-linecap="round" stroke-linejoin="round"/>
<path d="M142.631 221.7C153.125 221.7 161.631 213.193 161.631 202.7C161.631 192.207 153.125 183.7 142.631 183.7C132.138 183.7 123.631 192.207 123.631 202.7C123.631 213.193 132.138 221.7 142.631 221.7Z" stroke="white" stroke-width="10" stroke-miterlimit="10" stroke-linecap="round" stroke-linejoin="round"/>
<path d="M172.031 202.7H161.631" stroke="white" stroke-width="10" stroke-miterlimit="10" stroke-linecap="round" stroke-linejoin="round"/>
<path d="M123.631 202.7H113.231" stroke="white" stroke-width="10" stroke-miterlimit="10" stroke-linecap="round" stroke-linejoin="round"/>
<path d="M142.631 232.1V221.7" stroke="white" stroke-width="10" stroke-miterlimit="10" stroke-linecap="round" stroke-linejoin="round"/>
<path d="M142.631 183.7V173.3" stroke="white" stroke-width="10" stroke-miterlimit="10" stroke-linecap="round" stroke-linejoin="round"/>
</svg>
