<svg width="316" height="311" viewBox="0 0 316 311" fill="none" xmlns="http://www.w3.org/2000/svg">
<path d="M16.5999 306C10.8999 281 10.6001 252.3 17.3001 227.9C20.9001 214.7 27.6 201.6 39.2 194.5C52.8 186.2 70.6999 187.9 85.0999 194.6C91.5999 197.6 97.6 201.6 104.2 204.5C110.8 207.4 118.2 209 125.1 207.2C144.2 202.2 154.7 176.6 158.1 159.2C163.3 132.9 153.3 112.4 143.5 88.8C132.6 62.5 127.5 33.4 130.2 5" stroke="white" stroke-width="10" stroke-miterlimit="10" stroke-linecap="round" stroke-linejoin="round"/>
<path d="M50.3004 306C47.5004 287 47.1005 267.8 50.4005 248.4C51.8005 240.2 54.8001 231.8 61.0001 226.2C73.9001 214.5 88.8002 223.9 96.1002 236.6C104.8 251.9 110.5 266 124.5 277.6C140.7 291 162.1 298.8 183.2 295.8C219.6 290.7 250.7 263.7 272.7 235.9C294.3 208.8 308.3 175.3 310 140.5C312.1 97.9001 287.7 58.2001 242.3 56.0001C232.5 55.5001 222.6 57.0001 213.6 60.9001C204.7 64.8001 198.6 74.2001 190 77.4001C184.6 79.4001 178.4 77.1001 174.3 73.0001C157.6 56.6001 157.9 27.7001 160.3 5.1001" stroke="white" stroke-width="10" stroke-miterlimit="10" stroke-linecap="round" stroke-linejoin="round"/>
<path d="M116.4 89.7001V125.3C116.4 127.3 114.8 128.9 112.8 128.9H85.7002C83.7002 128.9 82.1001 130.5 82.1001 132.5V159.6C82.1001 161.6 80.5 163.2 78.5 163.2H42.9004C40.9004 163.2 39.3003 161.6 39.3003 159.6V132.5C39.3003 130.5 37.7002 128.9 35.7002 128.9H8.6001C6.6001 128.9 5 127.3 5 125.3V89.7001C5 87.7001 6.6001 86.1 8.6001 86.1H35.7002C37.7002 86.1 39.3003 84.5 39.3003 82.5V55.4C39.3003 53.4 40.9004 51.8 42.9004 51.8H78.5C80.5 51.8 82.1001 53.4 82.1001 55.4V82.5C82.1001 84.5 83.7002 86.1 85.7002 86.1H112.8C114.8 86.2 116.4 87.8001 116.4 89.7001Z" stroke="white" stroke-width="10" stroke-miterlimit="10" stroke-linecap="round" stroke-linejoin="round"/>
</svg>
