<svg width="337" height="320" viewBox="0 0 337 320" fill="none" xmlns="http://www.w3.org/2000/svg">
<path d="M69.724 5C71.324 44.1 48.7239 76.6 30.8239 109.5C9.62389 148.5 3.42389 191.3 5.32389 235.5C6.52389 262.4 12.024 288.6 17.724 314.8" stroke="white" stroke-width="10" stroke-miterlimit="10" stroke-linecap="round" stroke-linejoin="round"/>
<path d="M266.624 5C265.024 44.1 287.624 76.6 305.524 109.5C326.724 148.5 332.924 191.3 331.024 235.5C329.824 262.4 324.324 288.6 318.624 314.8" stroke="white" stroke-width="10" stroke-miterlimit="10" stroke-linecap="round" stroke-linejoin="round"/>
<path d="M139.324 238.9L154.924 258.6C158.224 262.8 163.224 265.1 168.524 265C173.324 264.9 177.824 262.8 180.924 259.3L198.924 238.9" stroke="white" stroke-width="10" stroke-miterlimit="10" stroke-linecap="round" stroke-linejoin="round"/>
<path d="M168.924 313.8V264.9" stroke="white" stroke-width="10" stroke-miterlimit="10" stroke-linecap="round" stroke-linejoin="round"/>
<path d="M168.924 73.3999V88.9999" stroke="white" stroke-width="10" stroke-miterlimit="10" stroke-linecap="round" stroke-linejoin="round"/>
</svg>
